<?xml version="1.0" standalone="no"?>
<!DOCTYPE svg PUBLIC "-//W3C//DTD SVG 20010904//EN"
 "http://www.w3.org/TR/2001/REC-SVG-20010904/DTD/svg10.dtd">
<svg version="1.0" xmlns="http://www.w3.org/2000/svg"
 width="1024.000000pt" height="1024.000000pt" viewBox="0 0 1024.000000 1024.000000"
 preserveAspectRatio="xMidYMid meet">

<g transform="translate(0.000000,1024.000000) scale(0.100000,-0.100000)"
fill="#000000" stroke="none">
<path d="M2157 9549 c-446 -32 -878 -231 -1201 -554 -308 -308 -497 -706 -545
-1147 -15 -135 -15 -5321 0 -5456 40 -373 185 -720 418 -1006 84 -103 263
-271 367 -344 254 -181 562 -302 869 -344 148 -19 5962 -19 6110 0 512 69 975
339 1284 749 173 229 285 478 349 772 l27 126 0 2765 c0 2996 4 2800 -55 3026
-138 527 -498 970 -985 1214 -243 121 -459 180 -731 200 -165 12 -5740 11
-5907 -1z m6033 -432 c300 -61 558 -191 762 -385 214 -204 353 -441 423 -721
13 -53 29 -141 35 -196 8 -71 10 -868 8 -2760 l-4 -2660 -21 -96 c-71 -319
-213 -573 -441 -791 -161 -152 -356 -267 -567 -333 -239 -75 48 -68 -3160 -72
-1887 -3 -2925 0 -3011 6 -73 6 -167 18 -209 26 -314 65 -621 247 -823 487
-213 254 -322 518 -352 849 -14 156 -14 5142 0 5298 24 268 98 485 238 696
254 384 654 624 1109 665 48 4 1402 7 3008 6 2712 -2 2926 -3 3005 -19z"/>
<path d="M2700 6153 c-212 -202 -386 -370 -388 -374 -3 -7 2797 -2629 2808
-2629 9 0 2804 2616 2808 2628 3 10 -766 737 -780 737 -5 0 -462 -423 -1015
-940 -553 -517 -1009 -940 -1013 -940 -4 0 -461 424 -1015 943 -555 518 -1011
942 -1014 942 -3 -1 -179 -166 -391 -367z"/>
</g>
</svg>
